<svg width="17" height="17" viewBox="0 0 17 17" fill="none" xmlns="http://www.w3.org/2000/svg">
<g clip-path="url(#clip0_276_526)">
<path d="M5.63141 14.5276L0.431406 9.32758C0.271406 9.17824 0.191406 8.99158 0.191406 8.76758C0.191406 8.54358 0.271406 8.35158 0.431406 8.19158L1.55141 7.07158C1.71141 6.91158 1.90341 6.83158 2.12741 6.83158C2.35141 6.83158 2.53807 6.91158 2.68741 7.07158L6.19141 10.5756L13.6954 3.07158C13.8554 2.91158 14.0447 2.83158 14.2634 2.83158C14.4821 2.83158 14.6714 2.91158 14.8314 3.07158L15.9514 4.19158C16.1114 4.35158 16.1914 4.54358 16.1914 4.76758C16.1914 4.99158 16.1114 5.17824 15.9514 5.32758L6.75141 14.5276C6.60207 14.6876 6.41541 14.7676 6.19141 14.7676C5.96741 14.7676 5.78074 14.6876 5.63141 14.5276Z" fill="#3147F3"/>
</g>
<defs>
<clipPath id="clip0_276_526">
<rect width="16" height="16" fill="white" transform="matrix(1 0 0 -1 0.191406 16.7998)"/>
</clipPath>
</defs>
</svg>
